<?xml version="1.0" encoding="UTF-8" standalone="no"?>
<!DOCTYPE svg PUBLIC "-//W3C//DTD SVG 1.1//EN" "http://www.w3.org/Graphics/SVG/1.1/DTD/svg11.dtd">
<svg height="100%" stroke-miterlimit="10" style="fill-rule:nonzero;clip-rule:evenodd;stroke-linecap:round;stroke-linejoin:round;" version="1.1" viewBox="0 0 32 32" width="100%" xml:space="preserve" xmlns="http://www.w3.org/2000/svg" xmlns:xlink="http://www.w3.org/1999/xlink">
<defs/>
<g clip-path="url(#ArtboardFrame)" id="Untitled">
<path d="M0 26.016C0 27.68 0.586667 29.088 1.76 30.24C2.93333 31.392 4.352 31.9787 6.016 32L26.016 32C27.6587 32 29.0667 31.4133 30.24 30.24C31.4133 29.0667 32 27.6587 32 26.016L32 6.016C32 4.352 31.4133 2.93333 30.24 1.76C29.0667 0.586667 27.6587-1.77636e-15 26.016-1.77636e-15L6.016-1.77636e-15C4.352-1.77636e-15 2.93333 0.586667 1.76 1.76C0.586667 2.93333-2.22045e-15 4.352-1.9984e-15 6.016C-1.9984e-15 6.016-1.9984e-15 26.016 0 26.016ZM4 26.016L4 6.016C4 5.46133 4.192 4.992 4.576 4.608C4.96 4.224 5.44 4.02133 6.016 4L26.016 4C26.5493 4 27.0187 4.20267 27.424 4.608C27.8293 5.01333 28.0213 5.48267 28 6.016L28 26.016C28 26.5707 27.808 27.04 27.424 27.424C27.04 27.808 26.5707 28 26.016 28L6.016 28C5.46133 28 4.98133 27.808 4.576 27.424C4.17067 27.04 3.97867 26.5707 4 26.016ZM6.016 24C6.016 24.5547 6.208 25.0347 6.592 25.44C6.976 25.8453 7.44533 26.0373 8 26.016L24 26.016C24.5547 26.016 25.024 25.824 25.408 25.44C25.792 25.056 25.9947 24.576 26.016 24L26.016 23.072C25.8667 22.7733 25.4933 21.8773 24.896 20.384C24.2987 18.8907 23.7653 17.696 23.296 16.8C22.8267 15.904 22.4 15.2 22.016 14.688C21.6533 14.304 21.28 14.1013 20.896 14.08C20.512 14.0587 20.128 14.1867 19.744 14.464C19.36 14.7413 18.976 15.1147 18.592 15.584C18.208 16.0533 17.8133 16.576 17.408 17.152C17.0027 17.728 16.6187 18.2933 16.256 18.848C15.8933 19.4027 15.5093 19.936 15.104 20.448C14.6987 20.96 14.336 21.3547 14.016 21.632C13.696 21.9093 13.3333 22.0587 12.928 22.08C12.544 22.08 11.9893 21.6 11.264 20.64C11.1573 20.512 10.9973 20.3093 10.784 20.032C10.0373 19.0293 9.504 18.4213 9.184 18.208C8.672 17.8667 8.27733 17.984 8 18.56C7.85067 18.9013 7.54133 19.648 7.072 20.8C6.60267 21.952 6.25067 22.8053 6.016 23.36C6.016 23.36 6.016 24 6.016 24ZM6.016 9.024C6.016 9.856 6.304 10.56 6.88 11.136C7.456 11.712 8.16 12 8.992 12C9.824 12 10.5387 11.712 11.136 11.136C11.7333 10.56 12.0213 9.856 12 9.024C11.9787 8.192 11.6907 7.47733 11.136 6.88C10.5813 6.28267 9.86667 5.99467 8.992 6.016C8.11733 6.03733 7.41333 6.32533 6.88 6.88C6.34667 7.43467 6.05867 8.14933 6.016 9.024Z" fill="#ffffff" fill-rule="nonzero" opacity="1" stroke="#ffffff" stroke-linecap="butt" stroke-linejoin="miter" stroke-width="1"/>
</g>
</svg>
